<?xml version="1.0" encoding="UTF-8" standalone="no"?>
<!-- Created with Inkscape (http://www.inkscape.org/) -->

<svg
   xmlns:dc="http://purl.org/dc/elements/1.1/"
   xmlns:cc="http://creativecommons.org/ns#"
   xmlns:rdf="http://www.w3.org/1999/02/22-rdf-syntax-ns#"
   xmlns:svg="http://www.w3.org/2000/svg"
   xmlns="http://www.w3.org/2000/svg"
   xmlns:sodipodi="http://sodipodi.sourceforge.net/DTD/sodipodi-0.dtd"
   xmlns:inkscape="http://www.inkscape.org/namespaces/inkscape"
   id="svg2985"
   version="1.1"
   inkscape:version="0.48.2 r9819"
   width="1000"
   height="1276.5746"
   xml:space="preserve"
   sodipodi:docname="Retailer_Guide_Web.pdf"><metadata
     id="metadata2991"><rdf:RDF><cc:Work
         rdf:about=""><dc:format>image/svg+xml</dc:format><dc:type
           rdf:resource="http://purl.org/dc/dcmitype/StillImage" /><dc:title></dc:title></cc:Work></rdf:RDF></metadata><defs
     id="defs2989"><clipPath
       clipPathUnits="userSpaceOnUse"
       id="clipPath3001"><path
         d="m 87.35,86.643 234,0 0,306.693 -234,0 0,-306.693 z"
         id="path3003"
         inkscape:connector-curvature="0" /></clipPath><clipPath
       clipPathUnits="userSpaceOnUse"
       id="clipPath3199"><path
         d="m 281.888,106.874 77.539,0 0,177.808 -77.539,0 0,-177.808 z"
         id="path3201"
         inkscape:connector-curvature="0" /></clipPath><clipPath
       clipPathUnits="userSpaceOnUse"
       id="clipPath3379"><path
         d="m 40.272,205.874 83.077,0 0,216 -83.077,0 0,-216 z"
         id="path3381"
         inkscape:connector-curvature="0" /></clipPath><clipPath
       clipPathUnits="userSpaceOnUse"
       id="clipPath3563"><path
         d="m 152.688,191.35 95.094,0 0,121.421 -95.094,0 0,-121.421 z"
         id="path3565"
         inkscape:connector-curvature="0" /></clipPath></defs><sodipodi:namedview
     pagecolor="#ffffff"
     bordercolor="#666666"
     borderopacity="1"
     objecttolerance="10"
     gridtolerance="10"
     guidetolerance="10"
     inkscape:pageopacity="0"
     inkscape:pageshadow="2"
     inkscape:window-width="1063"
     inkscape:window-height="1036"
     id="namedview2987"
     showgrid="false"
     fit-margin-left="0.5"
     fit-margin-bottom="0.5"
     fit-margin-top="0.5"
     fit-margin-right="0.5"
     inkscape:zoom="0.61699346"
     inkscape:cx="458.07871"
     inkscape:cy="594.69992"
     inkscape:window-x="851"
     inkscape:window-y="-16"
     inkscape:window-maximized="0"
     inkscape:current-layer="g2993" /><g
     id="g2993"
     inkscape:groupmode="layer"
     inkscape:label="Retailer_Guide_Web"
     transform="matrix(1.25,0,0,-1.25,-153.68633,1558.8121)"><g
       id="g3559"
       transform="matrix(8.4043511,0,0,8.4043511,-1159.8945,-1381.9826)"><g
         id="g3561"
         clip-path="url(#clipPath3563)"><g
           id="g3567"
           transform="translate(187.8793,225.6563)"><path
             d="m 0,0 c -1.525,0.208 -4.276,0.916 -4.276,0.916 l 2.289,2.705 1.178,3.328 -0.485,1.387 -1.734,1.872 c -0.069,1.525 -0.589,2.183 -0.589,2.183 -1.144,3.675 -1.075,2.947 -1.075,2.947 -1.317,1.665 -2.704,2.081 -2.704,2.081 l 0.52,1.282 3.987,0.104 C -0.878,16.725 -0.601,15.2 -0.601,15.2 1.687,14.021 1.41,13.605 1.41,13.605 l 2.773,-1.04 2.288,-3.675 -1.456,3.883 -5.269,2.843 c -0.139,1.387 0,1.595 0,1.595 -0.399,0.762 -0.347,1.473 -0.347,1.473 -0.555,5.269 -0.139,4.351 -0.139,4.351 l 0.555,2.981 C 1.063,29.206 1.341,28.72 1.341,28.72 2.311,28.547 2.45,28.443 2.45,28.443 3.421,24.352 2.103,23.451 2.103,23.451 L 2.658,22.48 2.727,20.4 3.282,19.014 2.727,18.181 c 0.971,0.555 1.179,0.208 1.179,0.208 l 0.347,4.646 0.416,1.074 0.346,1.422 c 0.971,1.144 2.427,3.675 2.427,3.675 L 8.898,28.928 8.829,25.947 8.135,23.589 8.274,22.827 7.65,20.47 7.789,19.082 6.853,18.146 7.893,17.904 c 1.317,1.595 1.976,2.912 1.976,2.912 l 0.971,0.624 1.525,-0.97 0.208,-0.903 C 12.018,17.973 12.157,17.141 12.157,17.141 10.77,15.893 10.424,14.784 10.424,14.784 l -1.318,0.277 -0.277,0.555 c 0,1.595 0.554,3.12 0.554,3.12 l -0.208,0 L 8.968,18.042 8.621,17.557 8.135,14.784 c 1.248,-0.555 1.803,-1.11 1.803,-1.11 l 1.664,1.179 0.624,1.595 c 0.693,-0.624 1.11,-0.693 1.11,-0.693 l 0.277,-1.665 0.208,-2.079 C 12.642,10.971 12.088,10 12.088,10 c -0.624,0.485 -1.11,0.485 -1.11,0.485 l 0.208,1.872 c 0.416,0.693 0.347,1.11 0.347,1.11 L 10.909,13.05 10.493,12.912 10.562,11.248 10.216,9.583 11.048,9.237 10.978,7.296 C 9.314,5.354 8.655,3.724 8.655,3.724 L 7.095,2.719 5.57,3.066 C 5.778,2.373 6.61,1.679 6.61,1.679 L 5.917,0.847 0.84,-0.046 0,0 z"
             style="fill:#f89c0e;fill-opacity:1;fill-rule:nonzero;stroke:none"
             id="path3569"
             inkscape:connector-curvature="0" /></g><g
           id="g3571"
           transform="translate(157.5409,308.6102)"><path
             d="m 0,0 0.693,-1.803 1.249,-11.925 -2.011,-5.825 2.565,-5.633 -2.01,-14.075 1.456,-3.103 C 1.04,-46.316 1.179,-48.119 1.179,-48.119 L -0.554,-53.25 1.04,-55.33 0,-59.421 1.803,-66.146 c -0.347,-3.883 -1.11,-5.894 -1.11,-5.894 l 1.179,-1.526 -1.456,-9.221 2.635,1.456 4.576,-1.248 3.675,1.179 9.568,0.693 c 4.022,0.208 5.201,-1.317 5.201,-1.317 l 2.287,2.704 1.179,3.328 -0.485,1.386 -1.733,1.873 c -0.07,1.525 -0.59,2.184 -0.59,2.184 -1.144,3.675 -1.074,2.947 -1.074,2.947 -1.318,1.663 -2.704,2.08 -2.704,2.08 l 0.519,1.282 3.987,0.105 c 2.011,-2.081 2.288,-3.606 2.288,-3.606 2.288,-1.179 2.011,-1.595 2.011,-1.595 l 2.773,-1.04 2.288,-3.674 -1.455,3.882 -5.27,2.843 c -0.139,1.386 0,1.595 0,1.595 -0.399,0.762 -0.347,1.473 -0.347,1.473 -0.554,5.27 -0.138,4.351 -0.138,4.351 l 0.554,2.981 c 1.248,3.19 1.526,2.704 1.526,2.704 0.97,-0.173 1.109,-0.277 1.109,-0.277 0.971,-4.091 -0.347,-4.992 -0.347,-4.992 l 0.555,-0.971 0.069,-2.08 0.555,-1.387 -0.555,-0.832 c 0.971,0.555 1.179,0.208 1.179,0.208 l 0.347,4.646 0.416,1.075 0.347,1.421 c 0.97,1.144 2.426,3.675 2.426,3.675 l 1.456,-0.277 -0.069,-2.982 -0.693,-2.357 0.138,-0.763 -0.624,-2.358 0.139,-1.386 -0.936,-0.936 1.04,-0.243 c 1.317,1.595 1.976,2.912 1.976,2.912 l 0.971,0.625 1.525,-0.972 0.208,-0.901 c -0.554,-1.595 -0.416,-2.427 -0.416,-2.427 -1.387,-1.248 -1.733,-2.357 -1.733,-2.357 l -1.318,0.277 -0.277,0.555 c 0,1.595 0.555,3.12 0.555,3.12 l -0.208,0 -0.209,-0.694 -0.346,-0.485 -0.485,-2.773 c 1.248,-0.554 1.802,-1.11 1.802,-1.11 l 1.664,1.179 0.625,1.595 c 0.693,-0.624 1.109,-0.693 1.109,-0.693 l 0.277,-1.665 0.208,-2.08 c -1.178,-1.04 -1.733,-2.01 -1.733,-2.01 -0.625,0.485 -1.11,0.485 -1.11,0.485 l 0.208,1.872 c 0.416,0.693 0.347,1.109 0.347,1.109 l -0.624,-0.416 -0.416,-0.138 0.069,-1.664 -0.347,-1.664 0.833,-0.347 -0.07,-1.941 c -1.664,-1.942 -2.323,-3.571 -2.323,-3.571 l -1.56,-1.006 -1.525,0.347 c 0.208,-0.693 1.04,-1.386 1.04,-1.386 l -0.693,-0.833 2.704,-0.277 2.981,0.486 c 3.398,-0.417 6.518,-1.526 6.518,-1.526 5.131,1.526 9.638,1.595 9.638,1.595 l 0.693,-0.763 c 9.222,1.04 15.393,0.624 15.393,0.624 4.714,-0.208 8.735,-1.248 8.735,-1.248 l -1.316,5.27 1.386,2.704 -1.178,5.269 0.97,3.051 -0.416,9.013 1.11,4.924 c -1.249,3.327 -1.526,6.309 -1.526,6.309 l 1.942,10.123 -0.625,3.398 0.833,6.24 -0.833,3.952 c -1.178,13.659 1.041,22.465 1.041,22.465 L 82.925,-0.763 76.27,-0.485 C 68.574,-2.08 67.533,-1.872 67.533,-1.872 l -5.616,0.069 -1.317,1.179 c -2.358,-0.139 -3.744,-0.693 -3.744,-0.693 l -7.42,0 -3.813,0.346 L 44.86,0 38.516,-1.248 36.575,-1.179 33.559,-2.288 29.537,-0.971 C 26.695,-2.149 23.99,-2.704 23.99,-2.704 L 21.979,-2.635 16.641,-0.416 12.689,-1.594 9.568,-0.971 8.32,-1.664 C 4.299,-0.347 0,0 0,0"
             style="fill:#1a3576;fill-opacity:1;fill-rule:nonzero;stroke:none"
             id="path3573"
             inkscape:connector-curvature="0" /></g><g
           id="g3575"
           transform="translate(226.3307,224.6095)"><path
             d="M 0,0 C 1.11,0.815 2.436,1.43 2.436,1.43 2.081,1.959 1.898,2.115 1.898,2.115 0.321,2.167 -1.317,2.054 -1.317,2.054 L -1.343,2.063 C -0.52,1.213 0,0 0,0"
             style="fill:#1a3576;fill-opacity:1;fill-rule:nonzero;stroke:none"
             id="path3577"
             inkscape:connector-curvature="0" /></g><g
           id="g3579"
           transform="translate(158.9278,275.6755)"><path
             d="M 0,0 C -0.59,1.092 -0.953,2.028 -0.953,2.028 L -1.057,2.08 -2.635,1.11 c -1.456,1.04 -2.461,2.877 -2.461,2.877 -0.693,2.149 -1.144,2.877 -1.144,2.877 1.178,0.347 2.496,1.803 2.496,1.803 L -3.571,8.043 C -3.016,6.691 -2.912,5.824 -2.722,5.27 -2.514,4.665 -2.045,3.259 -2.045,3.259 -1.422,4.23 -0.746,4.94 -0.746,4.94 l 0.677,1.092 C 0.208,4.992 0.607,4.108 0.607,4.108 0.225,1.612 0,0 0,0"
             style="fill:#1a3576;fill-opacity:1;fill-rule:nonzero;stroke:none"
             id="path3581"
             inkscape:connector-curvature="0" /></g><g
           id="g3583"
           transform="translate(187.0608,310.7771)"><path
             d="M 0,0 C 0.659,0.641 2.358,1.716 2.358,1.716 2.808,0.728 5.443,-1.11 5.443,-1.11 L 5.564,-1.127 7.176,0.312 8.095,1.37 8.147,1.404 8.823,0.555 9.17,0.156 l 0.883,-1.04 c 1.162,-1.109 1.569,-2.011 1.569,-2.011 L 9.152,-3.389 C 8.459,-1.993 7.991,-1.491 7.991,-1.491 L 7.835,-1.404 C 7.679,-0.971 7.506,-0.953 7.506,-0.953 L 7.41,-0.945 C 6.301,-1.716 6.318,-1.959 6.318,-1.959 5.252,-2.479 4.663,-3.207 4.663,-3.207 2.617,-0.676 0,0 0,0"
             style="fill:#1a3576;fill-opacity:1;fill-rule:nonzero;stroke:none"
             id="path3585"
             inkscape:connector-curvature="0" /></g><g
           id="g3587"
           transform="translate(209.0751,311.1064)"><path
             d="M 0,0 0.728,0.243 2.998,1.387 3.519,1.664 3.554,1.629 C 2.998,0.26 3.016,-1.474 3.016,-1.474 l 0.06,-0.424 -0.06,-0.009 -0.538,0.468 C 1.734,-1.196 1.058,-0.676 1.058,-0.676 0.59,-0.225 0,0 0,0"
             style="fill:#1a3576;fill-opacity:1;fill-rule:nonzero;stroke:none"
             id="path3589"
             inkscape:connector-curvature="0" /></g><g
           id="g3591"
           transform="translate(240.5016,295.5923)"><path
             d="m 0,0 c 0.017,1.465 0.078,2.331 0.078,2.331 0.633,0.165 1.569,0.26 1.569,0.26 L 1.673,2.644 C 1.135,3.658 0.754,4.013 0.754,4.013 2.01,5.443 2.852,6.067 2.852,6.067 3.588,6.422 3.891,6.656 3.891,6.656 L 5.746,7.74 C 6.414,6.474 7.28,5.356 7.28,5.356 3.987,4.906 2.704,3.9 2.704,3.9 L 3.268,3.086 4.975,0.208 C 2.002,0.537 0,0 0,0"
             style="fill:#1a3576;fill-opacity:1;fill-rule:nonzero;stroke:none"
             id="path3593"
             inkscape:connector-curvature="0" /></g><g
           id="g3595"
           transform="translate(159.2744,217.2949)"><path
             d="M 0,0 C 2.011,0.138 3.259,0.762 3.259,0.762 L 6.102,0.277 9.152,1.109 14.769,-0.139 8.736,-0.278 4.507,-1.109 1.838,-0.59 0,0 z"
             style="fill:#1a3576;fill-opacity:1;fill-rule:nonzero;stroke:none"
             id="path3597"
             inkscape:connector-curvature="0" /></g><g
           id="g3599"
           transform="translate(223.7223,217.3646)"><path
             d="m 0,0 3.744,0.451 1.214,-0.555 2.946,0.415 0.59,0.417 1.872,0.936 1.906,-0.833 0.797,-0.277 2.428,-0.276 -5.409,-1.11 L 6.24,-0.763 3.814,-0.52 2.808,-0.832 0,0 z"
             style="fill:#1a3576;fill-opacity:1;fill-rule:nonzero;stroke:none"
             id="path3601"
             inkscape:connector-curvature="0" /></g><g
           id="g3603"
           transform="translate(176.2831,221.8479)"><path
             d="m 0,0 -2.233,0 0,1.313 6.699,0 0,-1.313 -2.233,0 0,-11.359 -2.233,0 L 0,0 z"
             style="fill:#1a3576;fill-opacity:1;fill-rule:nonzero;stroke:none"
             id="path3605"
             inkscape:connector-curvature="0" /></g><g
           id="g3607"
           transform="translate(190.7969,221.8479)"><path
             d="m 0,0 -4.465,0 0,-4.366 3.349,0 0,-1.314 -3.349,0 0,-4.366 4.465,0 0,-1.313 -4.465,0 c -1.238,0 -2.233,0.585 -2.233,1.313 l 0,10.046 c 0,0.727 0.995,1.313 2.233,1.313 L 0,1.313 0,0 z"
             style="fill:#1a3576;fill-opacity:1;fill-rule:nonzero;stroke:none"
             id="path3609"
             inkscape:connector-curvature="0" /></g><g
           id="g3611"
           transform="translate(196.2237,216.8252)"><path
             d="m 0,0 -2.505,6.336 2.263,0 1.147,-3.248 C 0.996,2.804 1.056,2.538 1.116,2.254 l 0.061,0 c 0.06,0.284 0.12,0.55 0.211,0.834 l 1.147,3.248 2.262,0 L 2.293,0 l 2.504,-6.336 -2.262,0 -1.147,3.247 c -0.091,0.285 -0.151,0.55 -0.211,0.834 l -0.061,0 C 1.056,-2.539 0.996,-2.804 0.905,-3.089 l -1.147,-3.247 -2.263,0 L 0,0 z"
             style="fill:#1a3576;fill-opacity:1;fill-rule:nonzero;stroke:none"
             id="path3613"
             inkscape:connector-curvature="0" /></g><path
           d="m 207.172,217.482 2.232,0 0,4.366 -2.232,0 0,-4.366 z m -2.233,3.816 c 0,1.082 1.508,1.969 3.349,1.969 1.84,0 3.35,-0.887 3.35,-1.969 l 0,-10.809 -2.234,0 0,5.679 -2.232,0 0,-5.679 -2.233,0 0,10.809 z"
           style="fill:#1a3576;fill-opacity:1;fill-rule:nonzero;stroke:none"
           id="path3615"
           inkscape:connector-curvature="0" /><g
           id="g3617"
           transform="translate(215.6775,213.7897)"><path
             d="m 0,0 2.233,0 0,-1.987 2.233,0 0,4.365 -2.233,0 C 0.996,2.378 0,2.964 0,3.692 l 0,3.816 c 0,1.083 1.509,1.97 3.35,1.97 1.84,0 3.349,-0.887 3.349,-1.97 l 0,-1.438 -2.233,0 0,1.988 -2.233,0 0,-4.366 2.233,0 c 1.237,0 2.233,-0.586 2.233,-1.314 l 0,-3.816 c 0,-1.083 -1.509,-1.97 -3.349,-1.97 -1.841,0 -3.35,0.887 -3.35,1.97 L 0,0 z"
             style="fill:#1a3576;fill-opacity:1;fill-rule:nonzero;stroke:none"
             id="path3619"
             inkscape:connector-curvature="0" /></g><g
           id="g3621"
           transform="translate(159.0457,211.1929)"><path
             d="m 0,0 2.961,0 0,-17.662 2.961,0 0,4.085 2.961,0 0,-6.126 -8.883,0 L 0,0 z"
             style="fill:#1a3576;fill-opacity:1;fill-rule:nonzero;stroke:none"
             id="path3623"
             inkscape:connector-curvature="0" /></g><path
           d="m 177.219,206.399 -2.758,0 0,-13.186 2.758,0 0,13.186 z m -5.517,-0.722 c 0,1.422 1.864,2.586 4.138,2.586 2.273,0 4.137,-1.164 4.137,-2.586 l 0,-11.742 c 0,-1.421 -1.864,-2.585 -4.137,-2.585 -2.274,0 -4.138,1.164 -4.138,2.585 l 0,11.742 z"
           style="fill:#1a3576;fill-opacity:1;fill-rule:nonzero;stroke:none"
           id="path3625"
           inkscape:connector-curvature="0" /><g
           id="g3627"
           transform="translate(185.7881,206.3995)"><path
             d="m 0,0 -2.758,0 0,1.724 8.275,0 0,-1.724 -2.758,0 0,-14.91 L 0,-14.91 0,0 z"
             style="fill:#1a3576;fill-opacity:1;fill-rule:nonzero;stroke:none"
             id="path3629"
             inkscape:connector-curvature="0" /></g><g
           id="g3631"
           transform="translate(197.1939,206.3995)"><path
             d="m 0,0 -2.759,0 0,1.724 8.275,0 0,-1.724 -2.758,0 0,-14.91 L 0,-14.91 0,0 z"
             style="fill:#1a3576;fill-opacity:1;fill-rule:nonzero;stroke:none"
             id="path3633"
             inkscape:connector-curvature="0" /></g><g
           id="g3635"
           transform="translate(214.4149,206.3995)"><path
             d="m 0,0 -5.517,0 0,-5.732 4.138,0 0,-1.724 -4.138,0 0,-5.73 5.517,0 0,-1.724 -5.517,0 c -1.528,0 -2.758,0.769 -2.758,1.724 l 0,13.186 c 0,0.955 1.23,1.724 2.758,1.724 L 0,1.724 0,0 z"
             style="fill:#1a3576;fill-opacity:1;fill-rule:nonzero;stroke:none"
             id="path3637"
             inkscape:connector-curvature="0" /></g><path
           d="m 221.156,200.667 2.758,0 0,5.732 -2.758,0 0,-5.732 z m -2.76,7.456 5.518,0 c 1.528,0 2.757,-0.769 2.757,-1.724 l 0,-5.266 c 0,-0.791 -0.558,-1.094 -1.229,-1.327 0.671,-0.163 1.229,-0.513 1.229,-1.538 l 0,-5.545 c 0,-0.465 0.299,-0.815 0.672,-1.233 l -2.833,0 c -0.298,0.349 -0.596,0.815 -0.596,1.233 l 0,6.221 -2.758,0 0,-7.454 -2.76,0 0,16.633 z"
           style="fill:#1a3576;fill-opacity:1;fill-rule:nonzero;stroke:none"
           id="path3639"
           inkscape:connector-curvature="0" /><g
           id="g3641"
           transform="translate(233.83,200.2923)"><path
             d="m 0,0 c -0.92,0.248 -1.64,0.635 -2.16,1.131 -0.52,0.524 -0.801,1.132 -0.801,1.767 l 0,8.003 2.961,0 0,-8.859 2.961,0 0,8.859 2.961,0 0,-8.003 C 5.922,2.263 5.642,1.655 5.123,1.131 4.602,0.635 3.882,0.248 2.961,0 l 0,-8.803 L 0,-8.803 0,0 z"
             style="fill:#1a3576;fill-opacity:1;fill-rule:nonzero;stroke:none"
             id="path3643"
             inkscape:connector-curvature="0" /></g><g
           id="g3645"
           transform="translate(176.1924,298.5567)"><path
             d="m 0,0 -0.902,-4.091 0.763,-4.992 c 2.912,-5.408 5.27,-7.419 5.27,-7.419 l 2.08,-2.357 c 1.525,-3.398 3.12,-5.686 3.12,-5.686 l 0.139,-2.357 1.04,-0.416 c 1.802,0.207 2.357,0.416 2.357,0.416 l 10.331,-2.011 6.795,-4.091 8.667,-4.715 5.755,-0.971 c 4.507,0.278 6.517,1.109 6.517,1.109 l 1.387,0.972 -1.872,2.149 -2.08,1.525 c -4.091,2.635 -7.28,3.675 -7.28,3.675 -9.569,0.693 -16.987,2.011 -16.987,2.011 -8.252,0.624 -11.857,1.664 -11.857,1.664 l -1.456,-0.416 -0.416,1.733 -0.971,1.872 c 1.387,-0.832 2.323,-2.218 2.323,-2.218 7.142,-1.665 8.563,-0.971 8.563,-0.971 l 2.497,-0.763 5.269,-0.208 2.149,-0.555 c 3.467,0.139 5.477,-0.346 5.477,-0.346 l 0.208,1.109 1.665,3.051 2.981,7.488 c 1.595,5.339 1.456,6.587 1.456,6.587 -0.832,3.606 -1.595,4.23 -1.595,4.23 l -1.941,1.456 -3.051,-0.832 -2.704,0.901 c -0.138,0.763 -0.485,1.318 -0.485,1.318 l 0.052,0.069 c 0.572,-0.434 0.728,-0.798 0.728,-0.798 l 1.543,0.174 -1.63,2.843 c -3.397,0.034 -5.928,0.554 -5.928,0.554 -3.398,-2.114 -6.102,-3.224 -6.102,-3.224 l -3.64,-4.056 -3.744,-3.328 -0.867,-1.352 -0.45,-0.312 0,-1.526 3.709,-4.09 c 4.715,-3.398 8.008,-6.379 8.008,-6.379 l 3.883,-1.977 -1.386,-0.416 -5.305,2.947 -3.848,3.433 -2.773,2.114 -3.432,4.403 -0.278,1.595 2.219,1.802 c -0.797,0.59 -1.768,1.11 -1.768,1.11 L 9.776,-5.859 7.488,-3.432 4.68,-0.693 C 3.363,-0.381 1.976,0.173 1.976,0.173 L 0,0 z"
             style="fill:#f89c0e;fill-opacity:1;fill-rule:nonzero;stroke:none"
             id="path3647"
             inkscape:connector-curvature="0" /></g><g
           id="g3649"
           transform="translate(179.9365,255.7069)"><path
             d="m 0,0 c -2.011,2.566 -2.843,2.704 -2.843,2.704 l -2.149,-0.069 0.138,2.08 1.942,3.675 -6.171,3.258 c -0.971,2.011 -1.109,3.19 -1.109,3.19 -3.953,0.971 -6.171,3.12 -6.171,3.12 l -2.08,-1.664 -0.208,-0.347 c -1.526,2.08 -2.358,4.022 -2.358,4.022 l 0.555,4.16 c 1.248,-4.091 2.773,-5.963 2.773,-5.963 1.179,1.248 2.566,2.149 2.566,2.149 2.288,-2.912 4.645,-3.952 4.645,-3.952 -0.208,1.179 0.208,3.121 0.208,3.121 l 3.883,-0.139 4.368,-2.496 -1.733,-2.635 c -3.051,-0.277 -4.299,0.347 -4.299,0.347 l 0.069,-2.427 c 4.23,-0.624 7.558,-2.011 7.558,-2.081 0,-0.068 -2.704,-4.506 -2.704,-4.506 L -3.675,4.021 -0.763,4.299 C 0.139,2.635 1.525,2.08 1.525,2.08 0.624,1.595 0,0 0,0"
             style="fill:#f89c0e;fill-opacity:1;fill-rule:nonzero;stroke:none"
             id="path3651"
             inkscape:connector-curvature="0" /></g><g
           id="g3653"
           transform="translate(235.0583,269.0021)"><path
             d="M 0,0 C 2.6,0.693 3.917,1.508 3.917,1.508 3.953,-1.161 3.086,-2.409 3.086,-2.409 1.664,-0.953 0,0 0,0"
             style="fill:#f89c0e;fill-opacity:1;fill-rule:nonzero;stroke:none"
             id="path3655"
             inkscape:connector-curvature="0" /></g><g
           id="g3657"
           transform="translate(201.6213,262.9611)"><path
             d="M 0,0 C 2.349,0.901 3.276,1.734 3.276,1.734 3.311,0.581 3.917,-1.465 3.917,-1.465 1.491,-0.529 0,0 0,0"
             style="fill:#f89c0e;fill-opacity:1;fill-rule:nonzero;stroke:none"
             id="path3659"
             inkscape:connector-curvature="0" /></g><g
           id="g3661"
           transform="translate(187.806,262.0513)"><path
             d="M 0,0 C 1.456,0.416 4.438,0.936 4.438,0.936 7.939,0.139 8.39,-0.208 8.39,-0.208 L 7.038,-0.07 4.23,0.312 C 1.838,0.277 0,0 0,0"
             style="fill:#f89c0e;fill-opacity:1;fill-rule:nonzero;stroke:none"
             id="path3663"
             inkscape:connector-curvature="0" /></g><g
           id="g3665"
           transform="translate(189.4356,260.3179)"><path
             d="m 0,0 -0.035,0.104 0.971,0.278 3.918,0.381 c 3.12,-0.971 4.021,-1.751 4.021,-1.751 L 7.87,-0.624 C 7.142,-0.416 6.344,-0.174 6.344,-0.174 4.992,0.416 0,0 0,0"
             style="fill:#f89c0e;fill-opacity:1;fill-rule:nonzero;stroke:none"
             id="path3667"
             inkscape:connector-curvature="0" /></g><g
           id="g3669"
           transform="translate(232.7702,273.3184)"><path
             d="m 0,0 c -0.832,1.317 -0.693,2.149 -0.901,2.219 -1.374,0.458 -3.328,0.485 -3.328,0.485 1.508,0.971 2.982,1.629 2.982,1.629 -0.278,0.607 -0.642,1.959 -0.642,1.959 L 0.122,4.888 c 1.49,0.624 2.704,0.988 2.704,0.988 L 1.855,3.796 2.947,2.063 C 2.271,2.028 0.781,2.097 0.781,2.097 0.381,1.127 0,0 0,0"
             style="fill:#f89c0e;fill-opacity:1;fill-rule:nonzero;stroke:none"
             id="path3671"
             inkscape:connector-curvature="0" /></g><g
           id="g3673"
           transform="translate(239.219,275.7451)"><path
             d="M 0,0 C 0.069,4.16 0.485,5.339 0.485,5.339 L 0.312,6.795 0.381,8.32 0.485,8.286 C 0.52,6.83 0.832,6.24 0.832,6.24 L 0.762,3.779 C 0.381,1.63 0,0 0,0"
             style="fill:#f89c0e;fill-opacity:1;fill-rule:nonzero;stroke:none"
             id="path3675"
             inkscape:connector-curvature="0" /></g><g
           id="g3677"
           transform="translate(239.9033,297.7159)"><path
             d="m 0,0 c 0.382,0.173 0.668,0.182 0.668,0.182 -0.105,-1.655 -0.07,-2.28 -0.07,-2.28 L -1.074,-2.6 -1.924,-3.268 c 0.85,-0.702 1.396,-1.794 1.396,-1.794 -0.364,-2.262 -0.616,-2.912 -0.616,-2.912 -0.771,-2.21 -1.864,-3.874 -1.864,-3.874 -1.317,0.971 -2.703,1.456 -2.703,1.456 3.571,4.784 3.466,5.686 3.466,5.686 l -0.918,1.265 -1.612,1.058 c 2.288,1.352 3.293,1.785 3.293,1.785 l 0.703,0.407"
             style="fill:#f89c0e;fill-opacity:1;fill-rule:nonzero;stroke:none"
             id="path3679"
             inkscape:connector-curvature="0" /></g><g
           id="g3681"
           transform="translate(230.5865,299.0939)"><path
             d="M 0,0 -0.086,0.936 0.121,2.687 C 1.421,1.664 2.669,0.78 2.669,0.78 0.936,0.381 0,0 0,0"
             style="fill:#f89c0e;fill-opacity:1;fill-rule:nonzero;stroke:none"
             id="path3683"
             inkscape:connector-curvature="0" /></g><g
           id="g3685"
           transform="translate(235.9426,306.8422)"><path
             d="m 0,0 -0.017,0.087 1.057,0 c 2.306,-0.26 2.652,-0.174 2.652,-0.174 L 3.813,-0.208 3.71,-0.364 c 0,0 -0.278,-1.716 -0.295,-1.803 C 3.398,-2.253 3.259,-3.38 3.259,-3.38 L 3.137,-3.796 3.068,-4.212 2.964,-4.784 2.843,-4.888 2.826,-4.247 2.912,-2.271 2.999,-1.855 3.016,-1.231 3.103,-0.658 0.78,-0.121 0,0 z"
             style="fill:#f89c0e;fill-opacity:1;fill-rule:nonzero;stroke:none"
             id="path3687"
             inkscape:connector-curvature="0" /></g><g
           id="g3689"
           transform="translate(221.1218,229.2897)"><path
             d="m 0,0 2.808,2.843 3.12,1.595 C 4.923,5.755 3.745,6.552 3.745,6.552 L 3.71,6.726 4.004,6.951 5.894,9.568 5.998,10.505 6.31,12.064 5.928,11.891 2.496,10.678 -0.693,10.331 0,13.382 c 0.52,1.075 0.659,1.942 0.659,1.942 1.179,1.282 1.734,2.322 1.734,2.322 l 1.559,1.422 c 0,0 0.139,-0.104 0.208,-0.208 0.07,-0.105 2.462,-2.289 2.462,-2.289 0.52,-1.559 0.485,-2.565 0.485,-2.565 l 0.087,-0.121 2.444,1.75 0.347,0.244 0,0.103 -0.347,0.451 -1.318,2.149 -0.762,1.491 -0.173,0.277 0.416,0.174 1.213,0.554 c 1.699,1.318 2.08,2.288 2.08,2.288 C 12.1,22.049 13.313,21.39 13.313,21.39 11.51,20.177 9.916,19.796 9.916,19.796 l -0.035,-0.208 0.138,-0.798 0.035,-0.797 0.381,-0.624 c 1.006,-0.902 1.11,-1.283 1.11,-1.283 L 11.926,15.67 10.921,14.942 8.876,13.417 8.217,13.035 7.28,12.55 C 7.385,9.777 7.073,8.528 7.073,8.528 6.206,6.795 5.721,6.31 5.721,6.31 L 5.686,6.206 C 7.385,4.958 8.32,4.057 8.32,4.057 L 7.697,3.605 6.275,2.462 4.438,1.248 3.675,0.624 C 3.328,0.139 3.086,0.035 3.086,0.035 c 2.011,-0.867 3.12,-1.63 3.12,-1.63 0.451,-0.589 0.901,-0.97 0.901,-0.97 C 4.507,-2.548 3.892,-2.626 3.892,-2.626 1.707,-0.788 0,0 0,0"
             style="fill:#f89c0e;fill-opacity:1;fill-rule:nonzero;stroke:none"
             id="path3691"
             inkscape:connector-curvature="0" /></g><g
           id="g3693"
           transform="translate(231.9731,237.4022)"><path
             d="M 0,0 -0.45,0.953 -0.849,2.062 C -0.191,1.595 1.075,1.179 1.075,1.179 L 1.525,0.902 1.89,1.3 C 2.808,1.994 3.276,2.634 3.276,2.634 3.484,1.075 3.259,-0.242 3.259,-0.242 L 3.45,-0.555 C 3.935,-1.231 4.368,-2.271 4.368,-2.271 L 2.791,-1.855 2.601,-1.768 2.461,-1.837 2.427,-2.167 2.184,-3.12 2.166,-3.363 1.959,-4.004 1.907,-4.056 c -0.434,0.78 -0.711,1.075 -0.711,1.075 -0.399,0.52 -0.52,0.935 -0.52,0.935 l -0.121,0.278 c -1.56,0.104 -2.202,-0.035 -2.202,-0.035 l -0.035,0.052 0.382,0.416 0.312,0.433 C -0.191,-0.069 0,0 0,0"
             style="fill:#f89c0e;fill-opacity:1;fill-rule:nonzero;stroke:none"
             id="path3695"
             inkscape:connector-curvature="0" /></g><g
           id="g3697"
           transform="translate(202.7135,249.6058)"><path
             d="m 0,0 0.519,-1.977 0,-0.623 0.348,-2.15 0.173,-0.069 0.243,2.773 c -0.416,1.075 -0.52,1.179 -0.52,1.179 L 0,0 z"
             style="fill:#f89c0e;fill-opacity:1;fill-rule:nonzero;stroke:none"
             id="path3699"
             inkscape:connector-curvature="0" /></g><g
           id="g3701"
           transform="translate(207.6708,247.1098)"><path
             d="M 0,0 -0.346,0.346 -0.59,1.352 -0.798,2.132 -0.069,0.831 0,0 z"
             style="fill:#f89c0e;fill-opacity:1;fill-rule:nonzero;stroke:none"
             id="path3703"
             inkscape:connector-curvature="0" /></g><g
           id="g3705"
           transform="translate(210.7732,251.2347)"><path
             d="M 0,0 1.612,-1.057 2.306,-1.525 2.531,-1.595 2.479,-1.768 C 1.058,-2.704 -0.034,-4.229 -0.034,-4.229 l -0.104,-0.018 0,0.867 0.069,1.56 C 0.087,-0.659 0,0 0,0"
             style="fill:#f89c0e;fill-opacity:1;fill-rule:nonzero;stroke:none"
             id="path3707"
             inkscape:connector-curvature="0" /></g><g
           id="g3709"
           transform="translate(200.4774,227.1752)"><path
             d="M 0,0 0.069,0.087 0.779,0.138 2.565,0.243 3.779,0 5.547,-0.052 7.02,-0.277 7.592,-0.26 8.303,-0.39 9.603,-0.355 9.291,-0.486 8.736,-0.572 7.662,-0.581 C 6.743,-0.702 6.335,-0.893 6.335,-0.893 2.73,-0.13 1.629,-0.104 1.629,-0.104 L 0.606,-0.052 0,0 z"
             style="fill:#f89c0e;fill-opacity:1;fill-rule:nonzero;stroke:none"
             id="path3711"
             inkscape:connector-curvature="0" /></g><g
           id="g3713"
           transform="translate(211.9179,259.2084)"><path
             d="M 0,0 0.503,-0.139 2.652,-0.728 C 4.004,-1.317 4.125,-1.317 4.125,-1.317 4.472,-1.612 6.604,-1.872 6.604,-1.872 L 8.407,-2.114 10.14,-2.323 9.949,-2.392 C 7.869,-2.531 6.985,-2.462 6.985,-2.462 3.484,-1.803 2.756,-1.283 2.756,-1.283 L 1.508,-0.901 1.196,-0.797 0.034,-0.104 0,0 z"
             style="fill:#f89c0e;fill-opacity:1;fill-rule:nonzero;stroke:none"
             id="path3715"
             inkscape:connector-curvature="0" /></g><g
           id="g3717"
           transform="translate(214.951,255.135)"><path
             d="m 0,0 0.277,-0.121 -0.502,-0.243 -0.78,0.017 c -2.08,0.451 -3.606,1.439 -3.606,1.439 L -4.437,1.127 -3.328,0.676 -0.832,0.035 0,0 z"
             style="fill:#f89c0e;fill-opacity:1;fill-rule:nonzero;stroke:none"
             id="path3719"
             inkscape:connector-curvature="0" /></g><g
           id="g3721"
           transform="translate(160.089,228.1974)"><path
             d="m 0,0 -0.121,0.07 c 0.329,0.762 0.52,1.369 0.52,1.369 0.364,1.006 0.537,2.254 0.537,2.254 L 1.005,3.71 1.057,2.618 1.023,1.647 0.901,1.075 0.936,1.005 2.132,1.301 3.016,0.624 2.947,0.581 2.028,0.763 C 0.988,0.312 0.433,0.226 0.433,0.226 L 0,0 z"
             style="fill:#f89c0e;fill-opacity:1;fill-rule:nonzero;stroke:none"
             id="path3723"
             inkscape:connector-curvature="0" /></g><g
           id="g3725"
           transform="translate(166.7888,227.6608)"><path
             d="M 0,0 -0.061,0.052 0.199,0.19 0.771,0.399 1.239,0.485 1.967,0.71 2.366,0.52 C 0.875,0.311 0,0 0,0"
             style="fill:#f89c0e;fill-opacity:1;fill-rule:nonzero;stroke:none"
             id="path3727"
             inkscape:connector-curvature="0" /></g><g
           id="g3729"
           transform="translate(166.5025,233.6411)"><path
             d="m 0,0 -0.398,2.201 c 0.45,2.669 0.329,5.477 0.329,5.477 L 0.052,7.627 C 0.26,5.858 0.156,3.379 0.156,3.379 L 0.225,2.267 0.121,1.191 0.174,-0.052 0,0 z"
             style="fill:#f89c0e;fill-opacity:1;fill-rule:nonzero;stroke:none"
             id="path3731"
             inkscape:connector-curvature="0" /></g><g
           id="g3733"
           transform="translate(181.3754,236.6051)"><path
             d="M 0,0 -0.07,0.537 C -0.919,1.196 -1.3,1.699 -1.3,1.699 l -0.104,0.329 0.121,0.034 C -0.555,1.629 0.208,0.867 0.208,0.867 L 0.243,0.694 0.459,0.242 0.71,-1.11 0.658,-1.17 C 0.303,-0.356 0,0 0,0"
             style="fill:#f89c0e;fill-opacity:1;fill-rule:nonzero;stroke:none"
             id="path3735"
             inkscape:connector-curvature="0" /></g><g
           id="g3737"
           transform="translate(181.5139,246.607)"><path
             d="M 0,0 0.52,0.121 1.976,0.26 C 3.71,-0.139 3.519,-0.416 3.519,-0.416 L 3.432,-0.468 2.982,-0.33 C 1.716,0.052 0,0 0,0"
             style="fill:#f89c0e;fill-opacity:1;fill-rule:nonzero;stroke:none"
             id="path3739"
             inkscape:connector-curvature="0" /></g><g
           id="g3741"
           transform="translate(166.2253,253.4708)"><path
             d="M 0,0 -0.087,0.069 0.347,0.278 2.201,1.681 2.479,1.889 2.583,1.855 2.756,1.092 C 2.93,-0.399 3.207,-1.161 3.207,-1.161 L 2.756,-0.953 C 0.878,-0.023 0.875,-0.118 0.641,-0.069 0.152,0.033 0,0 0,0"
             style="fill:#f89c0e;fill-opacity:1;fill-rule:nonzero;stroke:none"
             id="path3743"
             inkscape:connector-curvature="0" /></g><g
           id="g3745"
           transform="translate(170.5761,254.5979)"><path
             d="m 0,0 c -0.124,0.623 -0.069,1.04 -0.069,1.04 0.138,0.867 0.104,1.386 0.104,1.386 l -0.104,1.144 0.52,2.67 c 0.06,0.443 0.24,0.862 0.286,1.256 0.06,0.512 0.546,1.222 0.546,1.222 L 1.421,8.736 C 0.659,6.725 0.849,5.772 0.849,5.772 L 0.52,2.53 C 0.589,1.629 0.416,1.179 0.416,1.179 0.139,0.762 0.087,-0.07 0.087,-0.07 L 0,0 z"
             style="fill:#f89c0e;fill-opacity:1;fill-rule:nonzero;stroke:none"
             id="path3747"
             inkscape:connector-curvature="0" /></g><g
           id="g3749"
           transform="translate(163.3653,293.9109)"><path
             d="M 0,0 -0.555,1.387 -0.832,2.219 -1.213,3.224 1.872,2.358 C 0.867,1.214 0,0 0,0"
             style="fill:#f89c0e;fill-opacity:1;fill-rule:nonzero;stroke:none"
             id="path3751"
             inkscape:connector-curvature="0" /></g><g
           id="g3753"
           transform="translate(162.3944,287.0815)"><path
             d="M 0,0 0.832,1.803 0.971,2.6 1.109,3.293 1.214,3.363 1.109,1.976 c 0,-1.699 -0.208,-2.531 -0.208,-2.531 L 1.109,-0.867 1.317,-1.668 1.525,-2.496 C 0.416,-0.277 0,0 0,0"
             style="fill:#f89c0e;fill-opacity:1;fill-rule:nonzero;stroke:none"
             id="path3755"
             inkscape:connector-curvature="0" /></g><g
           id="g3757"
           transform="translate(181.3579,298.1754)"><path
             d="M 0,0 0.919,1.508 C 1.283,1.993 0.936,2.323 0.936,2.323 L -0.329,4.333 -0.312,4.437 0.451,4.229 1.976,3.952 2.427,3.813 c 0.52,0.971 0.901,1.318 0.901,1.318 L 3.813,5.997 3.9,5.945 C 4.177,4.593 4.229,3.467 4.229,3.467 L 4.264,3.363 4.611,3.241 6.413,1.907 C 6.483,1.802 6.344,1.751 6.344,1.751 5.616,1.404 4.507,1.005 4.507,1.005 4.576,-0.243 4.334,-1.421 4.334,-1.421 L 4.004,-1.179 2.392,0.485 C 0.797,0.312 0,0 0,0"
             style="fill:#f89c0e;fill-opacity:1;fill-rule:nonzero;stroke:none"
             id="path3759"
             inkscape:connector-curvature="0" /></g><g
           id="g3761"
           transform="translate(198.2238,299.5619)"><path
             d="m 0,0 -0.087,-0.069 -0.485,0.381 -1.941,1.109 -2.808,1.803 -0.451,0.243 c 1.144,1.387 2.53,2.6 2.53,2.6 l 0.486,-0.139 c 0.867,-0.034 1.612,-0.502 1.612,-0.502 l 0.156,0 -0.069,0.606 C -1.3,6.933 -2.011,7.826 -2.011,7.826 L 0.459,8.32 C 0.607,8.156 0.797,7.601 0.797,7.601 1.387,6.067 0.901,5.044 0.901,5.044 0.869,4.794 0.841,4.793 0.841,4.793 L 0.797,4.576 1.092,4.437 C 2.514,3.692 4.421,1.872 4.421,1.872 3.501,1.283 2.618,0.087 2.618,0.087 L 2.531,0.139 1.699,1.872 C 1.075,2.444 0.676,3.016 0.676,3.016 l -0.052,0 L 0.503,1.751 0,0 z"
             style="fill:#f89c0e;fill-opacity:1;fill-rule:nonzero;stroke:none"
             id="path3763"
             inkscape:connector-curvature="0" /></g><g
           id="g3765"
           transform="translate(204.3081,305.3169)"><path
             d="M 0,0 C 0.728,0 1.491,0.208 1.491,0.208 L 3.294,0 2.41,-0.07 C 1.508,-0.208 0,0 0,0"
             style="fill:#f89c0e;fill-opacity:1;fill-rule:nonzero;stroke:none"
             id="path3767"
             inkscape:connector-curvature="0" /></g><g
           id="g3769"
           transform="translate(160.6958,302.89)"><path
             d="m 0,0 -0.139,0.035 -0.312,0.728 c -0.069,1.005 0.035,1.456 0.035,1.456 l -0.312,1.768 0.104,0.139 0.555,-0.174 0.832,0 C 2.011,3.813 2.149,3.605 2.149,3.605 2.358,3.502 2.531,3.571 2.531,3.571 L 4.195,3.224 C 4.923,2.947 5.738,3.241 5.738,3.241 l 1.144,-0.19 2.08,0.034 1.074,0.313 1.526,0.277 0.676,0.26 0.45,-0.156 L 12.983,3.64 13.365,3.536 13.954,3.363 14.769,3.068 14.474,3.051 13.486,3.224 13.018,3.241 12.81,3.259 12.116,3.294 C 11.579,3.241 11.059,2.964 11.059,2.964 L 9.898,2.826 C 8.927,2.6 8.251,2.635 8.251,2.635 L 7.246,2.652 5.235,3.033 C 3.709,2.947 2.531,3.085 2.531,3.085 2.219,3.224 1.941,3.259 1.941,3.259 0.988,3.311 -0.017,3.623 -0.017,3.623 L -0.104,3.588 c -0.069,-0.416 0,-0.815 0,-0.815 L -0.069,2.409 C -0.208,0.676 0,0 0,0"
             style="fill:#f89c0e;fill-opacity:1;fill-rule:nonzero;stroke:none"
             id="path3771"
             inkscape:connector-curvature="0" /></g><g
           id="g3773"
           transform="translate(171.8588,271.0302)"><path
             d="M 0,0 -0.035,3.397 C 0.589,3.259 1.456,3.328 1.456,3.328 2.704,2.739 3.744,1.456 3.744,1.456 2.462,0.312 2.045,0.416 2.045,0.416 0.763,-0.069 0,0 0,0"
             style="fill:#1a3576;fill-opacity:1;fill-rule:nonzero;stroke:none"
             id="path3775"
             inkscape:connector-curvature="0" /></g><g
           id="g3777"
           transform="translate(224.4158,246.5545)"><path
             d="m 0,0 2.322,-1.699 0.07,-0.624 0.45,-1.525 -1.247,-0.485 -0.278,-0.139 -2.322,-0.763 -0.486,-0.19 c 1.023,2.808 1.404,5.338 1.404,5.338 L 0,0 z"
             style="fill:#1a3576;fill-opacity:1;fill-rule:nonzero;stroke:none"
             id="path3779"
             inkscape:connector-curvature="0" /></g><g
           id="g3781"
           transform="translate(194.601,302.8728)"><path
             d="M 0,0 0.122,0.537 0.104,1.213 0.173,1.248 C 0.901,1.161 1.716,1.265 1.716,1.265 2.115,0.988 2.652,0.815 2.652,0.815 L 2.687,0.711 C 2.513,0.017 2.566,-0.953 2.566,-0.953 L 2.479,-1.005 2.167,-0.849 c -0.798,0.537 -1.578,0.78 -1.578,0.78 L 0.052,-0.087 0,0 z"
             style="fill:#1a3576;fill-opacity:1;fill-rule:nonzero;stroke:none"
             id="path3783"
             inkscape:connector-curvature="0" /></g><g
           id="g3785"
           transform="translate(209.7162,272.313)"><path
             d="m 0,0 c -1.144,0.59 -2.721,0.936 -2.721,0.936 0.953,0.277 1.923,0.243 1.923,0.243 C -1.439,2.253 -2.53,3.207 -2.53,3.207 -0.919,2.86 0.33,2.791 0.33,2.791 -0.728,4.195 -1.941,5.027 -1.941,5.027 -0.295,4.749 1.266,4.663 1.266,4.663 -0.052,6.327 -0.676,6.934 -0.676,6.934 1.213,6.483 2.462,6.448 2.462,6.448 L 0.659,8.424 c 2.062,-0.173 2.999,0 2.999,0 -1.422,1.595 -2.375,2.202 -2.375,2.202 l 3.328,-0.018 c -1.473,1.838 -2.566,2.687 -2.566,2.687 2.341,-0.225 3.45,0.017 3.45,0.017 C 4.091,15.497 3.259,15.6 3.259,15.6 4.645,15.653 5.79,15.306 5.79,15.306 5.374,16.745 4.282,17.611 4.282,17.611 5.564,17.421 6.431,16.97 6.431,16.97 5.703,18.443 4.993,19.362 4.993,19.362 6.605,18.547 7.281,17.611 7.281,17.611 6.847,14.283 6.569,13.676 6.569,13.676 L 5.737,11.024 C 4.785,7.956 3.502,5.859 3.502,5.859 L 1.595,2.045 C 0.676,1.092 0,0 0,0"
             style="fill:#1a3576;fill-opacity:1;fill-rule:nonzero;stroke:none"
             id="path3787"
             inkscape:connector-curvature="0" /></g><g
           id="g3789"
           transform="translate(209.647,266.1075)"><path
             d="m 0,0 c 4.022,-1.838 6.691,-3.952 6.691,-3.952 l 5.928,-0.243 c 2.774,0.728 3.814,0.659 3.814,0.659 -1.838,1.248 -3.051,2.877 -3.051,2.877 l 0.312,-2.219 c -1.525,1.561 -2.808,2.358 -2.808,2.358 0.658,-1.352 0.693,-2.462 0.693,-2.462 -2.392,1.561 -3.397,2.774 -3.397,2.774 0.208,-1.56 0.797,-2.67 0.797,-2.67 C 6.587,-0.728 6.344,0.243 6.344,0.243 6.24,-0.936 6.483,-2.912 6.483,-2.912 L 3.675,0.069 3.987,-1.352 C 2.288,-0.555 0,0 0,0"
             style="fill:#1a3576;fill-opacity:1;fill-rule:nonzero;stroke:none"
             id="path3791"
             inkscape:connector-curvature="0" /></g><g
           id="g3793"
           transform="translate(186.3502,276.8197)"><path
             d="M 0,0 -0.347,1.179 C -1.075,2.462 -2.392,3.64 -2.392,3.64 -1.144,1.872 -0.659,0.901 -0.659,0.901 -0.486,0.451 0,0 0,0"
             style="fill:#1a3576;fill-opacity:1;fill-rule:nonzero;stroke:none"
             id="path3795"
             inkscape:connector-curvature="0" /></g><g
           id="g3797"
           transform="translate(243.6541,306.8943)"><path
             d="m 0,0 c -0.723,0 -1.282,-0.635 -1.282,-1.349 0,-0.71 0.563,-1.34 1.282,-1.34 0.701,0 1.265,0.63 1.265,1.34 C 1.265,-0.63 0.71,0 0,0 m 0,-2.875 c -0.861,0 -1.526,0.678 -1.526,1.526 0,0.847 0.665,1.535 1.526,1.535 0.848,0 1.509,-0.688 1.509,-1.535 0,-0.848 -0.661,-1.526 -1.509,-1.526 m -0.221,1.539 0.19,0 c 0.218,0 0.306,0.169 0.306,0.404 0,0.253 -0.141,0.342 -0.314,0.342 l -0.182,0 0,-0.746 z m -0.502,0.83 0.785,0 c 0.262,0 0.511,-0.124 0.511,-0.404 0,-0.231 -0.151,-0.399 -0.351,-0.466 l 0.253,-0.35 c 0.115,-0.16 0.253,-0.311 0.337,-0.377 l 0,-0.036 -0.284,0 c -0.142,0 -0.253,0.302 -0.536,0.719 l -0.213,0 0,-0.439 c 0,-0.191 -0.005,-0.191 0.217,-0.213 l 0,-0.067 -0.719,0 0,0.067 c 0.222,0.022 0.217,0.022 0.217,0.213 l 0,1.069 c 0,0.2 0.005,0.195 -0.217,0.217 l 0,0.067 z"
             style="fill:#1a3576;fill-opacity:1;fill-rule:nonzero;stroke:none"
             id="path3799"
             inkscape:connector-curvature="0" /></g></g></g></g></svg>